<?xml version="1.0" standalone="no"?>
<!DOCTYPE svg PUBLIC "-//W3C//DTD SVG 20010904//EN"
 "http://www.w3.org/TR/2001/REC-SVG-20010904/DTD/svg10.dtd">
<svg version="1.0" xmlns="http://www.w3.org/2000/svg"
 width="967.000000pt" height="967.000000pt" viewBox="0 0 967.000000 967.000000"
 preserveAspectRatio="xMidYMid meet">
<metadata>
Created by potrace 1.14, written by Peter Selinger 2001-2017
</metadata>
<g transform="translate(0.000000,967.000000) scale(0.100000,-0.100000)"
fill="#000000" stroke="none">
<path d="M640 8891 l0 -769 246 -141 c136 -78 250 -141 255 -141 5 0 9 158 9
362 l0 362 270 -271 c149 -150 270 -275 270 -280 0 -4 -114 -122 -252 -260
l-253 -253 218 -217 217 -218 253 253 c138 138 255 252 260 252 4 0 89 -81
188 -180 l181 -180 -18 -27 c-82 -122 -138 -212 -182 -291 -388 -704 -465
-1542 -211 -2303 318 -956 1108 -1676 2089 -1903 58 -13 140 -30 183 -37 l77
-12 0 -403 0 -404 -495 0 -495 0 0 -420 0 -420 495 0 495 0 0 -495 0 -495 420
0 420 0 0 495 0 495 495 0 495 0 0 420 0 420 -495 0 -495 0 0 404 0 403 77 13
c241 39 561 144 798 262 236 118 497 304 698 498 464 446 752 1001 859 1651
19 115 22 174 22 424 1 309 -4 366 -54 605 -74 354 -218 697 -415 994 l-82
124 673 673 674 674 2 -363 3 -362 258 147 257 147 0 768 0 768 -772 -2 -772
-3 -143 -250 c-79 -137 -143 -253 -143 -257 0 -4 159 -9 354 -10 l354 -3 -662
-668 c-363 -367 -664 -667 -667 -667 -3 0 -69 42 -145 93 -303 201 -577 323
-914 407 -240 60 -431 82 -700 82 -588 0 -1119 -162 -1606 -488 l-152 -101
-183 183 -184 184 255 255 255 255 -218 217 -217 218 -255 -255 -255 -255
-270 270 c-149 148 -270 273 -270 277 0 4 161 9 358 10 l359 3 -144 253 -144
252 -765 0 -764 0 0 -769z m4502 -1336 c914 -120 1639 -821 1788 -1729 109
-665 -106 -1333 -585 -1811 -659 -660 -1670 -800 -2488 -346 -711 396 -1136
1206 -1057 2012 97 976 828 1738 1800 1874 131 18 404 18 542 0z"/>
</g>
</svg>
